<svg width="64" height="64" viewBox="0 0 64 64" fill="none" xmlns="http://www.w3.org/2000/svg">
  <path 
    d="M12 10C10.8954 10 10 10.8954 10 12V50C10 51.1046 10.8954 52 12 52H30C31.1046 52 32 51.1046 32 50V12C32 10.8954 31.1046 10 30 10H12Z" 
    fill="#fff" 
    stroke="#B00020" 
    stroke-width="2.5" 
    stroke-linejoin="round"/>
  <path 
    d="M32 12V50C32 51.1046 32.8954 52 34 52H52C53.1046 52 54 51.1046 54 50V12C54 10.8954 53.1046 10 52 10H34C32.8954 10 32 10.8954 32 12Z" 
    fill="#fff" 
    stroke="#B00020" 
    stroke-width="2.5" 
    stroke-linejoin="round"/>
  <line 
    x1="32" 
    y1="10" 
    x2="32" 
    y2="52" 
    stroke="#B00020" 
    stroke-width="1.5" 
    stroke-dasharray="2 4"/>
</svg>
